<!DOCTYPE svg PUBLIC "-//W3C//DTD SVG 1.1//EN" "http://www.w3.org/Graphics/SVG/1.1/DTD/svg11.dtd">
<!-- PDFTron PDFNet Generated! Version: 7.1.0.74195 -->
<svg id="svgRoot" version="1.1" baseProfile="Full" width="120px" height="120px" viewBox="0 0 120 120" xmlns="http://www.w3.org/2000/svg" xmlns:xlink="http://www.w3.org/1999/xlink" xmlns:cs="http://www.pdftron.com/pdf2svg" xml:space="preserve">
<defs>
</defs>
<style type="text/css">
<![CDATA[
.ps01 { stroke:none;fill:#589DF7;fill-rule:nonzero; }
.ps00 { stroke:none;fill:none; }
]]>
</style>
<clipPath id="clp1" clip-rule="nonzero">
<rect x="0" y="0" width="120" height="120"/>
</clipPath>
<g clip-path="url(#clp1)" transform="matrix(1 0 0 -1 -0 120)">
<g id="xfrm1" transform="matrix(1 0 0 -1 0 120)">
<g id="q2" class="">
<clipPath id="clp2" clip-rule="evenodd">
<path d="M9.1892 15.294 L119.19 15.294 L119.19 120 L9.1892 120 Z"/>
</clipPath>
<g clip-path="url(#clp2)">
<g id="q3" class="ps00">
<g id="xfrm4" transform="matrix(1 0 0 1 101 22)">
<path d="M-39.028 25.261 L-39.028 16.115 C-39.028 14.538 -38.719 13.026 -38.099 11.58 C-37.504 10.188 -36.665 8.955 -35.583 7.8808 C-34.502 6.8078 -33.262 5.9763 -31.863 5.3864 C-30.412 4.7743 -28.895 4.4682 -27.314 4.4682 L-3.957 4.4682 L-3.957 9.4682 L-27.314 9.4682 C-28.221 9.4682 -29.09 9.6433 -29.92 9.9935 C-30.724 10.332 -31.438 10.811 -32.06 11.429 C-32.682 12.046 -33.163 12.752 -33.503 13.547 C-33.853 14.365 -34.028 15.221 -34.028 16.115 L-34.028 25.261 L-39.028 25.261 ZM-34.048 25.241 L-34.028 25.261 C-34.028 26.661 -35.128 27.761 -36.528 27.761 C-37.928 27.761 -39.028 26.661 -39.028 25.261 L-39.008 25.241 L-34.048 25.241 ZM-3.977 4.4882 L-3.957 4.4682 C-2.557 4.4682 -1.457 5.5682 -1.457 6.9682 C-1.457 8.3682 -2.557 9.4682 -3.957 9.4682 L-3.977 9.4482 L-3.977 4.4882 Z" class="ps01"/>
<path d="M-7.9182 91.879 C-13.35 91.879 -17.988 89.972 -21.83 86.157 C-25.679 82.337 -27.603 77.725 -27.603 72.321 L-27.603 71.909 C-27.603 70.088 -28.259 68.526 -29.57 67.223 C-30.887 65.916 -32.469 65.262 -34.316 65.262 L-38.739 65.262 C-40.586 65.262 -42.168 65.916 -43.485 67.223 C-44.797 68.526 -45.453 70.088 -45.453 71.909 L-45.453 72.321 C-45.453 77.725 -47.377 82.337 -51.225 86.157 C-55.067 89.972 -59.705 91.879 -65.137 91.879 C-70.569 91.879 -75.206 89.972 -79.049 86.157 C-82.897 82.337 -84.821 77.725 -84.821 72.321 L-84.821 34.499 C-84.821 31.29 -83.672 28.546 -81.375 26.265 C-79.084 23.99 -76.327 22.853 -73.107 22.853 L0.0057678 22.853 C3.2264 22.853 5.9826 23.99 8.2744 26.265 C10.571 28.546 11.72 31.29 11.72 34.499 L11.72 72.321 L9.2197 72.321 L9.2197 69.821 L11.765 69.821 L11.765 72.321 C11.765 77.725 9.8414 82.337 5.9937 86.157 C2.151 89.971 -2.4863 91.879 -7.9182 91.879 ZM-7.9182 86.879 C-3.8599 86.879 -0.39677 85.455 2.4711 82.608 C5.3339 79.766 6.7653 76.337 6.7653 72.321 L9.2653 72.321 L9.2653 74.821 L6.7197 74.821 L6.7197 34.499 C6.7197 32.678 6.0637 31.116 4.7518 29.814 C3.4348 28.507 1.8528 27.853 0.0057678 27.853 L-73.107 27.853 C-74.954 27.853 -76.536 28.507 -77.853 29.814 C-79.165 31.116 -79.821 32.678 -79.821 34.499 L-79.821 72.321 C-79.821 76.337 -78.389 79.766 -75.526 82.608 C-72.658 85.455 -69.195 86.879 -65.137 86.879 C-61.078 86.879 -57.615 85.455 -54.747 82.608 C-51.884 79.766 -50.453 76.337 -50.453 72.321 L-50.453 71.909 C-50.453 68.7 -49.304 65.955 -47.007 63.675 C-44.715 61.4 -41.959 60.262 -38.739 60.262 L-34.316 60.262 C-31.096 60.262 -28.34 61.4 -26.048 63.675 C-23.751 65.955 -22.603 68.7 -22.603 71.909 L-22.603 72.321 C-22.603 76.337 -21.171 79.766 -18.308 82.608 C-15.44 85.455 -11.977 86.879 -7.9182 86.879 Z" class="ps01"/>
<path d="M-50.348 50.719 L-68.776 50.719 L-68.776 45.719 L-50.348 45.719 L-50.348 50.719 ZM-50.368 45.739 L-50.348 45.719 C-48.948 45.719 -47.848 46.819 -47.848 48.219 C-47.848 49.619 -48.948 50.719 -50.348 50.719 L-50.368 50.699 L-50.368 45.739 ZM-68.756 50.699 L-68.776 50.719 C-70.176 50.719 -71.276 49.619 -71.276 48.219 C-71.276 46.819 -70.176 45.719 -68.776 45.719 L-68.756 45.739 L-68.756 50.699 Z" class="ps01"/>
<path d="M-9.6283 41.084 C-9.6283 41.223 -9.58 41.34 -9.4833 41.436 C-9.3917 41.527 -9.2824 41.572 -9.1554 41.572 C-9.0284 41.572 -8.9191 41.527 -8.8275 41.436 C-8.7308 41.34 -8.6825 41.223 -8.6825 41.084 C-8.6825 40.946 -8.7308 40.829 -8.8276 40.733 C-8.9192 40.642 -9.0285 40.597 -9.1554 40.597 C-9.2823 40.597 -9.3916 40.642 -9.4832 40.733 C-9.58 40.829 -9.6283 40.946 -9.6283 41.084 L-9.6283 41.084 ZM-4.6283 41.084 C-4.6283 41.698 -4.7481 42.285 -4.9877 42.848 C-5.2181 43.388 -5.5425 43.867 -5.9609 44.282 C-6.3781 44.696 -6.8574 45.017 -7.3988 45.244 C-7.9593 45.479 -8.5449 45.597 -9.1554 45.597 C-9.7659 45.597 -10.351 45.479 -10.912 45.244 C-11.453 45.017 -11.933 44.696 -12.35 44.282 C-12.768 43.867 -13.093 43.388 -13.323 42.848 C-13.563 42.285 -13.682 41.698 -13.682 41.084 C-13.682 40.471 -13.563 39.884 -13.323 39.321 C-13.093 38.781 -12.768 38.303 -12.35 37.887 C-11.933 37.473 -11.454 37.153 -10.912 36.925 C-10.352 36.69 -9.766 36.572 -9.1554 36.572 C-8.5448 36.572 -7.9591 36.69 -7.3985 36.925 C-6.8571 37.153 -6.3779 37.473 -5.9608 37.887 C-5.5424 38.303 -5.2181 38.781 -4.9877 39.321 C-4.7481 39.884 -4.6283 40.471 -4.6283 41.084 L-4.6283 41.084 Z" class="ps01"/>
<path d="M-9.6283 55.353 C-9.6283 55.491 -9.58 55.608 -9.4833 55.704 C-9.3917 55.795 -9.2824 55.841 -9.1554 55.841 C-9.0284 55.841 -8.9191 55.795 -8.8275 55.704 C-8.7308 55.608 -8.6825 55.491 -8.6825 55.353 C-8.6825 55.215 -8.7308 55.098 -8.8275 55.002 C-8.9191 54.911 -9.0284 54.865 -9.1554 54.865 C-9.2824 54.865 -9.3917 54.911 -9.4833 55.002 C-9.58 55.098 -9.6283 55.215 -9.6283 55.353 ZM-4.6283 55.353 C-4.6283 55.966 -4.7481 56.554 -4.9877 57.116 C-5.2181 57.657 -5.5424 58.135 -5.9608 58.55 C-6.3779 58.964 -6.8571 59.285 -7.3985 59.512 C-7.9591 59.748 -8.5448 59.865 -9.1554 59.865 C-9.766 59.865 -10.352 59.748 -10.912 59.512 C-11.454 59.285 -11.933 58.964 -12.35 58.55 C-12.768 58.135 -13.093 57.657 -13.323 57.116 C-13.563 56.554 -13.682 55.966 -13.682 55.353 C-13.682 54.74 -13.563 54.152 -13.323 53.59 C-13.093 53.049 -12.768 52.571 -12.35 52.156 C-11.933 51.742 -11.454 51.421 -10.912 51.194 C-10.352 50.959 -9.766 50.841 -9.1554 50.841 C-8.5448 50.841 -7.9591 50.959 -7.3985 51.194 C-6.8571 51.421 -6.3779 51.742 -5.9608 52.156 C-5.5424 52.571 -5.2181 53.049 -4.9877 53.59 C-4.7481 54.152 -4.6283 54.74 -4.6283 55.353 Z" class="ps01"/>
</g>
</g>
</g>
</g>
</g>
</g>
</svg>
